G04 EAGLE Gerber RS-274X export*
G75*
%MOMM*%
%FSLAX34Y34*%
%LPD*%
%INSoldermask Bottom*%
%IPPOS*%
%AMOC8*
5,1,8,0,0,1.08239X$1,22.5*%
G01*
%ADD10C,3.378200*%
%ADD11C,1.879600*%
%ADD12C,3.505200*%
%ADD13P,1.951982X8X22.500000*%
%ADD14C,1.803400*%
%ADD15P,1.649562X8X22.500000*%
%ADD16C,1.727200*%
%ADD17C,2.108200*%
%ADD18C,1.524000*%
%ADD19R,1.727200X1.727200*%
%ADD20R,2.298700X2.298700*%
%ADD21P,1.759533X8X292.500000*%
%ADD22P,1.649562X8X112.500000*%
%ADD23P,1.649562X8X202.500000*%
%ADD24C,4.648200*%
%ADD25C,4.013200*%
%ADD26P,1.869504X8X112.500000*%
%ADD27C,5.283200*%
%ADD28C,1.524000*%
%ADD29P,1.869504X8X22.500000*%
%ADD30C,1.625600*%
%ADD31P,1.759533X8X22.500000*%
%ADD32P,1.649562X8X292.500000*%
%ADD33P,1.759533X8X112.500000*%
%ADD34C,1.903200*%
%ADD35C,4.165600*%
%ADD36P,1.869504X8X292.500000*%
%ADD37R,1.371600X1.803400*%
%ADD38R,0.152400X1.828800*%


D10*
X38100Y38100D03*
X38100Y1231900D03*
X1955800Y1231900D03*
X1955800Y38100D03*
D11*
X1663700Y194818D02*
X1663700Y211582D01*
X1638300Y211582D02*
X1638300Y194818D01*
X1612900Y194818D02*
X1612900Y211582D01*
D12*
X1638300Y53340D03*
D13*
X1892300Y228600D03*
D14*
X1866900Y228600D03*
D15*
X1689100Y266700D03*
X1739900Y266700D03*
X1600200Y279400D03*
X1651000Y279400D03*
X1600200Y241300D03*
X1651000Y241300D03*
D16*
X1663700Y1224280D02*
X1663700Y1239520D01*
X1689100Y1239520D02*
X1689100Y1224280D01*
X1714500Y1224280D02*
X1714500Y1239520D01*
X1739900Y1239520D02*
X1739900Y1224280D01*
X1765300Y1224280D02*
X1765300Y1239520D01*
D17*
X1143000Y1054100D03*
X1168400Y1054100D03*
X1193800Y1054100D03*
X1219200Y1054100D03*
X1244600Y1054100D03*
X1270000Y1054100D03*
X1295400Y1054100D03*
X1320800Y1054100D03*
X1346200Y1054100D03*
X1371600Y1054100D03*
X1397000Y1054100D03*
X1422400Y1054100D03*
X1447800Y1054100D03*
X1473200Y1054100D03*
X1498600Y1054100D03*
X1524000Y1054100D03*
X1524000Y1206500D03*
X1498600Y1206500D03*
X1473200Y1206500D03*
X1447800Y1206500D03*
X1397000Y1206500D03*
X1371600Y1206500D03*
X1346200Y1206500D03*
X1320800Y1206500D03*
X1295400Y1206500D03*
X1270000Y1206500D03*
X1244600Y1206500D03*
X1219200Y1206500D03*
X1193800Y1206500D03*
X1168400Y1206500D03*
X1143000Y1206500D03*
X1422400Y1206500D03*
D18*
X781304Y825500D02*
X768096Y825500D01*
X768096Y800100D02*
X781304Y800100D01*
X781304Y774700D02*
X768096Y774700D01*
X768096Y749300D02*
X781304Y749300D01*
X781304Y723900D02*
X768096Y723900D01*
X768096Y698500D02*
X781304Y698500D01*
X781304Y673100D02*
X768096Y673100D01*
X768096Y647700D02*
X781304Y647700D01*
X781304Y622300D02*
X768096Y622300D01*
X768096Y596900D02*
X781304Y596900D01*
X781304Y571500D02*
X768096Y571500D01*
X768096Y546100D02*
X781304Y546100D01*
X844296Y546100D02*
X857504Y546100D01*
X857504Y571500D02*
X844296Y571500D01*
X844296Y596900D02*
X857504Y596900D01*
X857504Y622300D02*
X844296Y622300D01*
X844296Y647700D02*
X857504Y647700D01*
X857504Y673100D02*
X844296Y673100D01*
X844296Y698500D02*
X857504Y698500D01*
X857504Y723900D02*
X844296Y723900D01*
X844296Y749300D02*
X857504Y749300D01*
X857504Y774700D02*
X844296Y774700D01*
X844296Y800100D02*
X857504Y800100D01*
X857504Y825500D02*
X844296Y825500D01*
D19*
X12954Y593979D03*
X12954Y549021D03*
D20*
X37846Y606552D03*
X37846Y536448D03*
D16*
X93980Y546100D02*
X109220Y546100D01*
X109220Y571500D02*
X93980Y571500D01*
X93980Y596900D02*
X109220Y596900D01*
D21*
X177800Y825500D03*
X177800Y800100D03*
X203200Y825500D03*
X203200Y800100D03*
D15*
X1714500Y304800D03*
X1765300Y304800D03*
D22*
X1752600Y38100D03*
X1752600Y63500D03*
X1727200Y114300D03*
X1727200Y190500D03*
D18*
X1866900Y374396D02*
X1866900Y387604D01*
X1841500Y387604D02*
X1841500Y374396D01*
X1765300Y374396D02*
X1765300Y387604D01*
X1739900Y387604D02*
X1739900Y374396D01*
X1714500Y374396D02*
X1714500Y387604D01*
D23*
X1879600Y342900D03*
X1828800Y342900D03*
D15*
X1714500Y342900D03*
X1765300Y342900D03*
D24*
X1874000Y114300D03*
D25*
X1935000Y114300D03*
X1905000Y162300D03*
D11*
X1816100Y122682D02*
X1816100Y105918D01*
X1816100Y232918D02*
X1816100Y249682D01*
X1524000Y186182D02*
X1524000Y169418D01*
X1524000Y296418D02*
X1524000Y313182D01*
D18*
X781304Y1066800D02*
X768096Y1066800D01*
X768096Y1041400D02*
X781304Y1041400D01*
X781304Y914400D02*
X768096Y914400D01*
X768096Y889000D02*
X781304Y889000D01*
X781304Y1016000D02*
X768096Y1016000D01*
X768096Y990600D02*
X781304Y990600D01*
X781304Y939800D02*
X768096Y939800D01*
X768096Y965200D02*
X781304Y965200D01*
X844296Y889000D02*
X857504Y889000D01*
X857504Y914400D02*
X844296Y914400D01*
X844296Y939800D02*
X857504Y939800D01*
X857504Y965200D02*
X844296Y965200D01*
X844296Y990600D02*
X857504Y990600D01*
X857504Y1016000D02*
X844296Y1016000D01*
X844296Y1041400D02*
X857504Y1041400D01*
X857504Y1066800D02*
X844296Y1066800D01*
D26*
X101600Y761492D03*
X101600Y789178D03*
X101600Y816610D03*
X101600Y844296D03*
X101600Y871982D03*
X101600Y899414D03*
X101600Y927100D03*
X101600Y954786D03*
X101600Y982218D03*
X101600Y1009904D03*
X101600Y1037590D03*
X101600Y1065022D03*
X101600Y1092708D03*
X76200Y775208D03*
X76200Y802894D03*
X76200Y830580D03*
X76200Y858012D03*
X76200Y885698D03*
X76200Y913384D03*
X76200Y940816D03*
X76200Y968502D03*
X76200Y996188D03*
X76200Y1023620D03*
X76200Y1051306D03*
X76200Y1078992D03*
D27*
X88900Y691896D03*
X88900Y1162304D03*
D16*
X1948180Y698500D02*
X1963420Y698500D01*
X1963420Y723900D02*
X1948180Y723900D01*
X1948180Y749300D02*
X1963420Y749300D01*
X1963420Y774700D02*
X1948180Y774700D01*
X1948180Y800100D02*
X1963420Y800100D01*
X1963420Y825500D02*
X1948180Y825500D01*
X1948180Y850900D02*
X1963420Y850900D01*
X1963420Y876300D02*
X1948180Y876300D01*
X1948180Y901700D02*
X1963420Y901700D01*
X1963420Y927100D02*
X1948180Y927100D01*
X1948180Y952500D02*
X1963420Y952500D01*
X1963420Y977900D02*
X1948180Y977900D01*
X1948180Y1003300D02*
X1963420Y1003300D01*
X1963420Y1028700D02*
X1948180Y1028700D01*
X1948180Y1054100D02*
X1963420Y1054100D01*
X1963420Y1079500D02*
X1948180Y1079500D01*
X1948180Y1104900D02*
X1963420Y1104900D01*
X1963420Y1155700D02*
X1948180Y1155700D01*
X1948180Y1181100D02*
X1963420Y1181100D01*
X1963420Y1130300D02*
X1948180Y1130300D01*
X1948180Y190500D02*
X1963420Y190500D01*
X1963420Y215900D02*
X1948180Y215900D01*
X1948180Y241300D02*
X1963420Y241300D01*
X1963420Y266700D02*
X1948180Y266700D01*
X1948180Y292100D02*
X1963420Y292100D01*
X1963420Y317500D02*
X1948180Y317500D01*
X1948180Y342900D02*
X1963420Y342900D01*
X1963420Y368300D02*
X1948180Y368300D01*
X1948180Y393700D02*
X1963420Y393700D01*
X1963420Y419100D02*
X1948180Y419100D01*
X1948180Y444500D02*
X1963420Y444500D01*
X1963420Y469900D02*
X1948180Y469900D01*
X1948180Y495300D02*
X1963420Y495300D01*
X1963420Y520700D02*
X1948180Y520700D01*
X1948180Y546100D02*
X1963420Y546100D01*
X1963420Y571500D02*
X1948180Y571500D01*
X1948180Y596900D02*
X1963420Y596900D01*
X1963420Y622300D02*
X1948180Y622300D01*
X1948180Y647700D02*
X1963420Y647700D01*
X1963420Y673100D02*
X1948180Y673100D01*
D28*
X304800Y927100D03*
X381000Y927100D03*
X381000Y1003300D03*
X304800Y1003300D03*
D29*
X457200Y1003300D03*
X457200Y927100D03*
D18*
X235204Y635000D02*
X221996Y635000D01*
X221996Y609600D02*
X235204Y609600D01*
X235204Y584200D02*
X221996Y584200D01*
X221996Y558800D02*
X235204Y558800D01*
X235204Y533400D02*
X221996Y533400D01*
X221996Y508000D02*
X235204Y508000D01*
X235204Y482600D02*
X221996Y482600D01*
X221996Y457200D02*
X235204Y457200D01*
X235204Y431800D02*
X221996Y431800D01*
X221996Y406400D02*
X235204Y406400D01*
X235204Y381000D02*
X221996Y381000D01*
X221996Y355600D02*
X235204Y355600D01*
X235204Y330200D02*
X221996Y330200D01*
X221996Y304800D02*
X235204Y304800D01*
X374396Y304800D02*
X387604Y304800D01*
X387604Y330200D02*
X374396Y330200D01*
X374396Y355600D02*
X387604Y355600D01*
X387604Y381000D02*
X374396Y381000D01*
X374396Y406400D02*
X387604Y406400D01*
X387604Y431800D02*
X374396Y431800D01*
X374396Y457200D02*
X387604Y457200D01*
X387604Y482600D02*
X374396Y482600D01*
X374396Y508000D02*
X387604Y508000D01*
X387604Y533400D02*
X374396Y533400D01*
X374396Y558800D02*
X387604Y558800D01*
X387604Y584200D02*
X374396Y584200D01*
X374396Y609600D02*
X387604Y609600D01*
X387604Y635000D02*
X374396Y635000D01*
X266700Y780796D02*
X266700Y794004D01*
X292100Y794004D02*
X292100Y780796D01*
X419100Y780796D02*
X419100Y794004D01*
X444500Y794004D02*
X444500Y780796D01*
X317500Y780796D02*
X317500Y794004D01*
X342900Y794004D02*
X342900Y780796D01*
X393700Y780796D02*
X393700Y794004D01*
X368300Y794004D02*
X368300Y780796D01*
X444500Y856996D02*
X444500Y870204D01*
X419100Y870204D02*
X419100Y856996D01*
X393700Y856996D02*
X393700Y870204D01*
X368300Y870204D02*
X368300Y856996D01*
X342900Y856996D02*
X342900Y870204D01*
X317500Y870204D02*
X317500Y856996D01*
X292100Y856996D02*
X292100Y870204D01*
X266700Y870204D02*
X266700Y856996D01*
D30*
X184912Y508000D02*
X170688Y508000D01*
X170688Y533400D02*
X184912Y533400D01*
X184912Y558800D02*
X170688Y558800D01*
D23*
X165100Y635000D03*
X88900Y635000D03*
D30*
X170688Y406400D02*
X184912Y406400D01*
X184912Y431800D02*
X170688Y431800D01*
X170688Y457200D02*
X184912Y457200D01*
D31*
X152400Y711200D03*
X152400Y736600D03*
X177800Y711200D03*
X177800Y736600D03*
X203200Y711200D03*
X203200Y736600D03*
X228600Y711200D03*
X228600Y736600D03*
X254000Y711200D03*
X254000Y736600D03*
X279400Y711200D03*
X279400Y736600D03*
X304800Y711200D03*
X304800Y736600D03*
X330200Y711200D03*
X330200Y736600D03*
X355600Y711200D03*
X355600Y736600D03*
X381000Y711200D03*
X381000Y736600D03*
X406400Y711200D03*
X406400Y736600D03*
X431800Y736600D03*
X431800Y711200D03*
D15*
X279400Y241300D03*
X304800Y241300D03*
D16*
X330200Y1236980D02*
X330200Y1252220D01*
X355600Y1252220D02*
X355600Y1236980D01*
X381000Y1236980D02*
X381000Y1252220D01*
X406400Y1252220D02*
X406400Y1236980D01*
X431800Y1236980D02*
X431800Y1252220D01*
X457200Y1252220D02*
X457200Y1236980D01*
D22*
X457200Y1117600D03*
X457200Y1143000D03*
X457200Y1054100D03*
X457200Y1079500D03*
D30*
X177800Y1237488D02*
X177800Y1251712D01*
X152400Y1251712D02*
X152400Y1237488D01*
D32*
X1003300Y1206500D03*
X1003300Y1181100D03*
D18*
X1237996Y215900D02*
X1251204Y215900D01*
X1251204Y190500D02*
X1237996Y190500D01*
X1237996Y63500D02*
X1251204Y63500D01*
X1251204Y38100D02*
X1237996Y38100D01*
X1237996Y165100D02*
X1251204Y165100D01*
X1251204Y139700D02*
X1237996Y139700D01*
X1237996Y88900D02*
X1251204Y88900D01*
X1251204Y114300D02*
X1237996Y114300D01*
X1314196Y38100D02*
X1327404Y38100D01*
X1327404Y63500D02*
X1314196Y63500D01*
X1314196Y88900D02*
X1327404Y88900D01*
X1327404Y114300D02*
X1314196Y114300D01*
X1314196Y139700D02*
X1327404Y139700D01*
X1327404Y165100D02*
X1314196Y165100D01*
X1314196Y190500D02*
X1327404Y190500D01*
X1327404Y215900D02*
X1314196Y215900D01*
D23*
X1435100Y215900D03*
X1358900Y215900D03*
X1435100Y254000D03*
X1358900Y254000D03*
D32*
X1473200Y241300D03*
X1473200Y215900D03*
D15*
X1358900Y177800D03*
X1435100Y177800D03*
D18*
X1035304Y317500D02*
X1022096Y317500D01*
X1022096Y292100D02*
X1035304Y292100D01*
X1035304Y266700D02*
X1022096Y266700D01*
X1022096Y241300D02*
X1035304Y241300D01*
X1035304Y215900D02*
X1022096Y215900D01*
X1022096Y190500D02*
X1035304Y190500D01*
X1035304Y165100D02*
X1022096Y165100D01*
X1022096Y139700D02*
X1035304Y139700D01*
X1035304Y114300D02*
X1022096Y114300D01*
X1022096Y88900D02*
X1035304Y88900D01*
X1035304Y63500D02*
X1022096Y63500D01*
X1022096Y38100D02*
X1035304Y38100D01*
X1174496Y38100D02*
X1187704Y38100D01*
X1187704Y63500D02*
X1174496Y63500D01*
X1174496Y88900D02*
X1187704Y88900D01*
X1187704Y114300D02*
X1174496Y114300D01*
X1174496Y139700D02*
X1187704Y139700D01*
X1187704Y165100D02*
X1174496Y165100D01*
X1174496Y190500D02*
X1187704Y190500D01*
X1187704Y215900D02*
X1174496Y215900D01*
X1174496Y241300D02*
X1187704Y241300D01*
X1187704Y266700D02*
X1174496Y266700D01*
X1174496Y292100D02*
X1187704Y292100D01*
X1187704Y317500D02*
X1174496Y317500D01*
D32*
X990600Y215900D03*
X990600Y139700D03*
D18*
X990600Y818896D02*
X990600Y832104D01*
X1016000Y832104D02*
X1016000Y818896D01*
X1143000Y818896D02*
X1143000Y832104D01*
X1168400Y832104D02*
X1168400Y818896D01*
X1041400Y818896D02*
X1041400Y832104D01*
X1066800Y832104D02*
X1066800Y818896D01*
X1117600Y818896D02*
X1117600Y832104D01*
X1092200Y832104D02*
X1092200Y818896D01*
X1193800Y818896D02*
X1193800Y832104D01*
X1219200Y832104D02*
X1219200Y818896D01*
X1244600Y818896D02*
X1244600Y832104D01*
X1270000Y832104D02*
X1270000Y818896D01*
X1295400Y818896D02*
X1295400Y832104D01*
X1320800Y832104D02*
X1320800Y818896D01*
X1346200Y818896D02*
X1346200Y832104D01*
X1371600Y832104D02*
X1371600Y818896D01*
X1397000Y818896D02*
X1397000Y832104D01*
X1422400Y832104D02*
X1422400Y818896D01*
X1447800Y818896D02*
X1447800Y832104D01*
X1473200Y832104D02*
X1473200Y818896D01*
X1473200Y971296D02*
X1473200Y984504D01*
X1447800Y984504D02*
X1447800Y971296D01*
X1422400Y971296D02*
X1422400Y984504D01*
X1397000Y984504D02*
X1397000Y971296D01*
X1371600Y971296D02*
X1371600Y984504D01*
X1346200Y984504D02*
X1346200Y971296D01*
X1320800Y971296D02*
X1320800Y984504D01*
X1295400Y984504D02*
X1295400Y971296D01*
X1270000Y971296D02*
X1270000Y984504D01*
X1244600Y984504D02*
X1244600Y971296D01*
X1219200Y971296D02*
X1219200Y984504D01*
X1193800Y984504D02*
X1193800Y971296D01*
X1168400Y971296D02*
X1168400Y984504D01*
X1143000Y984504D02*
X1143000Y971296D01*
X1117600Y971296D02*
X1117600Y984504D01*
X1092200Y984504D02*
X1092200Y971296D01*
X1066800Y971296D02*
X1066800Y984504D01*
X1041400Y984504D02*
X1041400Y971296D01*
X1016000Y971296D02*
X1016000Y984504D01*
X990600Y984504D02*
X990600Y971296D01*
D22*
X889000Y863600D03*
X889000Y939800D03*
D30*
X794512Y1219200D02*
X780288Y1219200D01*
X780288Y1193800D02*
X794512Y1193800D01*
X794512Y1168400D02*
X780288Y1168400D01*
X831088Y1219200D02*
X845312Y1219200D01*
X845312Y1193800D02*
X831088Y1193800D01*
X831088Y1168400D02*
X845312Y1168400D01*
D18*
X856996Y215900D02*
X870204Y215900D01*
X870204Y190500D02*
X856996Y190500D01*
X856996Y63500D02*
X870204Y63500D01*
X870204Y38100D02*
X856996Y38100D01*
X856996Y165100D02*
X870204Y165100D01*
X870204Y139700D02*
X856996Y139700D01*
X856996Y88900D02*
X870204Y88900D01*
X870204Y114300D02*
X856996Y114300D01*
X933196Y38100D02*
X946404Y38100D01*
X946404Y63500D02*
X933196Y63500D01*
X933196Y88900D02*
X946404Y88900D01*
X946404Y114300D02*
X933196Y114300D01*
X933196Y139700D02*
X946404Y139700D01*
X946404Y165100D02*
X933196Y165100D01*
X933196Y190500D02*
X946404Y190500D01*
X946404Y215900D02*
X933196Y215900D01*
D28*
X1397000Y113030D03*
X1397000Y64770D03*
D22*
X1371600Y114300D03*
X1371600Y139700D03*
D32*
X1371600Y63500D03*
X1371600Y38100D03*
D18*
X870204Y457200D02*
X856996Y457200D01*
X856996Y431800D02*
X870204Y431800D01*
X870204Y304800D02*
X856996Y304800D01*
X856996Y279400D02*
X870204Y279400D01*
X870204Y406400D02*
X856996Y406400D01*
X856996Y381000D02*
X870204Y381000D01*
X870204Y330200D02*
X856996Y330200D01*
X856996Y355600D02*
X870204Y355600D01*
X933196Y279400D02*
X946404Y279400D01*
X946404Y304800D02*
X933196Y304800D01*
X933196Y330200D02*
X946404Y330200D01*
X946404Y355600D02*
X933196Y355600D01*
X933196Y381000D02*
X946404Y381000D01*
X946404Y406400D02*
X933196Y406400D01*
X933196Y431800D02*
X946404Y431800D01*
X946404Y457200D02*
X933196Y457200D01*
X730504Y215900D02*
X717296Y215900D01*
X717296Y190500D02*
X730504Y190500D01*
X730504Y63500D02*
X717296Y63500D01*
X717296Y38100D02*
X730504Y38100D01*
X730504Y165100D02*
X717296Y165100D01*
X717296Y139700D02*
X730504Y139700D01*
X730504Y88900D02*
X717296Y88900D01*
X717296Y114300D02*
X730504Y114300D01*
X793496Y38100D02*
X806704Y38100D01*
X806704Y63500D02*
X793496Y63500D01*
X793496Y88900D02*
X806704Y88900D01*
X806704Y114300D02*
X793496Y114300D01*
X793496Y139700D02*
X806704Y139700D01*
X806704Y165100D02*
X793496Y165100D01*
X793496Y190500D02*
X806704Y190500D01*
X806704Y215900D02*
X793496Y215900D01*
X730504Y457200D02*
X717296Y457200D01*
X717296Y431800D02*
X730504Y431800D01*
X730504Y304800D02*
X717296Y304800D01*
X717296Y279400D02*
X730504Y279400D01*
X730504Y406400D02*
X717296Y406400D01*
X717296Y381000D02*
X730504Y381000D01*
X730504Y330200D02*
X717296Y330200D01*
X717296Y355600D02*
X730504Y355600D01*
X793496Y279400D02*
X806704Y279400D01*
X806704Y304800D02*
X793496Y304800D01*
X793496Y330200D02*
X806704Y330200D01*
X806704Y355600D02*
X793496Y355600D01*
X793496Y381000D02*
X806704Y381000D01*
X806704Y406400D02*
X793496Y406400D01*
X793496Y431800D02*
X806704Y431800D01*
X806704Y457200D02*
X793496Y457200D01*
X590804Y215900D02*
X577596Y215900D01*
X577596Y190500D02*
X590804Y190500D01*
X590804Y63500D02*
X577596Y63500D01*
X577596Y38100D02*
X590804Y38100D01*
X590804Y165100D02*
X577596Y165100D01*
X577596Y139700D02*
X590804Y139700D01*
X590804Y88900D02*
X577596Y88900D01*
X577596Y114300D02*
X590804Y114300D01*
X653796Y38100D02*
X667004Y38100D01*
X667004Y63500D02*
X653796Y63500D01*
X653796Y88900D02*
X667004Y88900D01*
X667004Y114300D02*
X653796Y114300D01*
X653796Y139700D02*
X667004Y139700D01*
X667004Y165100D02*
X653796Y165100D01*
X653796Y190500D02*
X667004Y190500D01*
X667004Y215900D02*
X653796Y215900D01*
X590804Y457200D02*
X577596Y457200D01*
X577596Y431800D02*
X590804Y431800D01*
X590804Y304800D02*
X577596Y304800D01*
X577596Y279400D02*
X590804Y279400D01*
X590804Y406400D02*
X577596Y406400D01*
X577596Y381000D02*
X590804Y381000D01*
X590804Y330200D02*
X577596Y330200D01*
X577596Y355600D02*
X590804Y355600D01*
X653796Y279400D02*
X667004Y279400D01*
X667004Y304800D02*
X653796Y304800D01*
X653796Y330200D02*
X667004Y330200D01*
X667004Y355600D02*
X653796Y355600D01*
X653796Y381000D02*
X667004Y381000D01*
X667004Y406400D02*
X653796Y406400D01*
X653796Y431800D02*
X667004Y431800D01*
X667004Y457200D02*
X653796Y457200D01*
X451104Y215900D02*
X437896Y215900D01*
X437896Y190500D02*
X451104Y190500D01*
X451104Y63500D02*
X437896Y63500D01*
X437896Y38100D02*
X451104Y38100D01*
X451104Y165100D02*
X437896Y165100D01*
X437896Y139700D02*
X451104Y139700D01*
X451104Y88900D02*
X437896Y88900D01*
X437896Y114300D02*
X451104Y114300D01*
X514096Y38100D02*
X527304Y38100D01*
X527304Y63500D02*
X514096Y63500D01*
X514096Y88900D02*
X527304Y88900D01*
X527304Y114300D02*
X514096Y114300D01*
X514096Y139700D02*
X527304Y139700D01*
X527304Y165100D02*
X514096Y165100D01*
X514096Y190500D02*
X527304Y190500D01*
X527304Y215900D02*
X514096Y215900D01*
X451104Y457200D02*
X437896Y457200D01*
X437896Y431800D02*
X451104Y431800D01*
X451104Y304800D02*
X437896Y304800D01*
X437896Y279400D02*
X451104Y279400D01*
X451104Y406400D02*
X437896Y406400D01*
X437896Y381000D02*
X451104Y381000D01*
X451104Y330200D02*
X437896Y330200D01*
X437896Y355600D02*
X451104Y355600D01*
X514096Y279400D02*
X527304Y279400D01*
X527304Y304800D02*
X514096Y304800D01*
X514096Y330200D02*
X527304Y330200D01*
X527304Y355600D02*
X514096Y355600D01*
X514096Y381000D02*
X527304Y381000D01*
X527304Y406400D02*
X514096Y406400D01*
X514096Y431800D02*
X527304Y431800D01*
X527304Y457200D02*
X514096Y457200D01*
X1161796Y723900D02*
X1175004Y723900D01*
X1175004Y698500D02*
X1161796Y698500D01*
X1161796Y673100D02*
X1175004Y673100D01*
X1175004Y647700D02*
X1161796Y647700D01*
X1161796Y622300D02*
X1175004Y622300D01*
X1175004Y596900D02*
X1161796Y596900D01*
X1161796Y571500D02*
X1175004Y571500D01*
X1175004Y546100D02*
X1161796Y546100D01*
X1161796Y520700D02*
X1175004Y520700D01*
X1175004Y495300D02*
X1161796Y495300D01*
X1161796Y469900D02*
X1175004Y469900D01*
X1175004Y444500D02*
X1161796Y444500D01*
X1161796Y419100D02*
X1175004Y419100D01*
X1175004Y393700D02*
X1161796Y393700D01*
X1314196Y393700D02*
X1327404Y393700D01*
X1327404Y419100D02*
X1314196Y419100D01*
X1314196Y444500D02*
X1327404Y444500D01*
X1327404Y469900D02*
X1314196Y469900D01*
X1314196Y495300D02*
X1327404Y495300D01*
X1327404Y520700D02*
X1314196Y520700D01*
X1314196Y546100D02*
X1327404Y546100D01*
X1327404Y571500D02*
X1314196Y571500D01*
X1314196Y596900D02*
X1327404Y596900D01*
X1327404Y622300D02*
X1314196Y622300D01*
X1314196Y647700D02*
X1327404Y647700D01*
X1327404Y673100D02*
X1314196Y673100D01*
X1314196Y698500D02*
X1327404Y698500D01*
X1327404Y723900D02*
X1314196Y723900D01*
X1866900Y489204D02*
X1866900Y475996D01*
X1841500Y475996D02*
X1841500Y489204D01*
X1765300Y489204D02*
X1765300Y475996D01*
X1739900Y475996D02*
X1739900Y489204D01*
X1714500Y489204D02*
X1714500Y475996D01*
X215900Y1085596D02*
X215900Y1098804D01*
X241300Y1098804D02*
X241300Y1085596D01*
X368300Y1085596D02*
X368300Y1098804D01*
X393700Y1098804D02*
X393700Y1085596D01*
X266700Y1085596D02*
X266700Y1098804D01*
X292100Y1098804D02*
X292100Y1085596D01*
X342900Y1085596D02*
X342900Y1098804D01*
X317500Y1098804D02*
X317500Y1085596D01*
X393700Y1161796D02*
X393700Y1175004D01*
X368300Y1175004D02*
X368300Y1161796D01*
X342900Y1161796D02*
X342900Y1175004D01*
X317500Y1175004D02*
X317500Y1161796D01*
X292100Y1161796D02*
X292100Y1175004D01*
X266700Y1175004D02*
X266700Y1161796D01*
X241300Y1161796D02*
X241300Y1175004D01*
X215900Y1175004D02*
X215900Y1161796D01*
D15*
X228600Y1066800D03*
X254000Y1066800D03*
X292100Y1066800D03*
X317500Y1066800D03*
D22*
X177800Y1117600D03*
X177800Y1143000D03*
D23*
X381000Y1066800D03*
X355600Y1066800D03*
D15*
X215900Y1193800D03*
X241300Y1193800D03*
D18*
X272796Y215900D02*
X286004Y215900D01*
X286004Y190500D02*
X272796Y190500D01*
X272796Y63500D02*
X286004Y63500D01*
X286004Y38100D02*
X272796Y38100D01*
X272796Y165100D02*
X286004Y165100D01*
X286004Y139700D02*
X272796Y139700D01*
X272796Y88900D02*
X286004Y88900D01*
X286004Y114300D02*
X272796Y114300D01*
X348996Y38100D02*
X362204Y38100D01*
X362204Y63500D02*
X348996Y63500D01*
X348996Y88900D02*
X362204Y88900D01*
X362204Y114300D02*
X348996Y114300D01*
X348996Y139700D02*
X362204Y139700D01*
X362204Y165100D02*
X348996Y165100D01*
X348996Y190500D02*
X362204Y190500D01*
X362204Y215900D02*
X348996Y215900D01*
D22*
X241300Y38100D03*
X241300Y114300D03*
X152400Y266700D03*
X133350Y254000D03*
X152400Y241300D03*
X152400Y190500D03*
X133350Y177800D03*
X152400Y165100D03*
X215900Y38100D03*
X215900Y114300D03*
D15*
X215900Y254000D03*
X203200Y273050D03*
X190500Y254000D03*
D32*
X215900Y215900D03*
X215900Y139700D03*
D22*
X241300Y139700D03*
X241300Y215900D03*
X190500Y139700D03*
X190500Y215900D03*
X165100Y38100D03*
X165100Y114300D03*
X190500Y38100D03*
X190500Y114300D03*
D33*
X177800Y1016000D03*
X152400Y1016000D03*
X177800Y1041400D03*
X152400Y1041400D03*
X177800Y1066800D03*
X152400Y1066800D03*
D21*
X177800Y965200D03*
X177800Y939800D03*
X203200Y965200D03*
X203200Y939800D03*
D22*
X38100Y88900D03*
X38100Y114300D03*
X38100Y165100D03*
X38100Y190500D03*
X38100Y241300D03*
X38100Y266700D03*
X38100Y317500D03*
X38100Y342900D03*
D18*
X94996Y177800D02*
X108204Y177800D01*
X108204Y203200D02*
X94996Y203200D01*
X94996Y228600D02*
X108204Y228600D01*
X108204Y254000D02*
X94996Y254000D01*
X94996Y279400D02*
X108204Y279400D01*
D22*
X469900Y1181100D03*
X469900Y1206500D03*
X444500Y1181100D03*
X444500Y1206500D03*
D18*
X1060196Y254000D02*
X1073404Y254000D01*
X1073404Y228600D02*
X1060196Y228600D01*
X1060196Y101600D02*
X1073404Y101600D01*
X1073404Y76200D02*
X1060196Y76200D01*
X1060196Y203200D02*
X1073404Y203200D01*
X1073404Y177800D02*
X1060196Y177800D01*
X1060196Y127000D02*
X1073404Y127000D01*
X1073404Y152400D02*
X1060196Y152400D01*
X1136396Y76200D02*
X1149604Y76200D01*
X1149604Y101600D02*
X1136396Y101600D01*
X1136396Y127000D02*
X1149604Y127000D01*
X1149604Y152400D02*
X1136396Y152400D01*
X1136396Y177800D02*
X1149604Y177800D01*
X1149604Y203200D02*
X1136396Y203200D01*
X1136396Y228600D02*
X1149604Y228600D01*
X1149604Y254000D02*
X1136396Y254000D01*
X1771396Y1104900D02*
X1784604Y1104900D01*
X1784604Y1079500D02*
X1771396Y1079500D01*
X1771396Y952500D02*
X1784604Y952500D01*
X1784604Y927100D02*
X1771396Y927100D01*
X1771396Y1054100D02*
X1784604Y1054100D01*
X1784604Y1028700D02*
X1771396Y1028700D01*
X1771396Y977900D02*
X1784604Y977900D01*
X1784604Y1003300D02*
X1771396Y1003300D01*
X1771396Y901700D02*
X1784604Y901700D01*
X1784604Y876300D02*
X1771396Y876300D01*
X1847596Y876300D02*
X1860804Y876300D01*
X1860804Y901700D02*
X1847596Y901700D01*
X1847596Y927100D02*
X1860804Y927100D01*
X1860804Y952500D02*
X1847596Y952500D01*
X1847596Y977900D02*
X1860804Y977900D01*
X1860804Y1003300D02*
X1847596Y1003300D01*
X1847596Y1028700D02*
X1860804Y1028700D01*
X1860804Y1054100D02*
X1847596Y1054100D01*
X1847596Y1079500D02*
X1860804Y1079500D01*
X1860804Y1104900D02*
X1847596Y1104900D01*
X1784604Y812800D02*
X1771396Y812800D01*
X1771396Y787400D02*
X1784604Y787400D01*
X1784604Y660400D02*
X1771396Y660400D01*
X1771396Y635000D02*
X1784604Y635000D01*
X1784604Y762000D02*
X1771396Y762000D01*
X1771396Y736600D02*
X1784604Y736600D01*
X1784604Y685800D02*
X1771396Y685800D01*
X1771396Y711200D02*
X1784604Y711200D01*
X1784604Y609600D02*
X1771396Y609600D01*
X1771396Y584200D02*
X1784604Y584200D01*
X1847596Y584200D02*
X1860804Y584200D01*
X1860804Y609600D02*
X1847596Y609600D01*
X1847596Y635000D02*
X1860804Y635000D01*
X1860804Y660400D02*
X1847596Y660400D01*
X1847596Y685800D02*
X1860804Y685800D01*
X1860804Y711200D02*
X1847596Y711200D01*
X1847596Y736600D02*
X1860804Y736600D01*
X1860804Y762000D02*
X1847596Y762000D01*
X1847596Y787400D02*
X1860804Y787400D01*
X1860804Y812800D02*
X1847596Y812800D01*
X1581404Y749300D02*
X1568196Y749300D01*
X1568196Y723900D02*
X1581404Y723900D01*
X1581404Y596900D02*
X1568196Y596900D01*
X1568196Y571500D02*
X1581404Y571500D01*
X1581404Y698500D02*
X1568196Y698500D01*
X1568196Y673100D02*
X1581404Y673100D01*
X1581404Y622300D02*
X1568196Y622300D01*
X1568196Y647700D02*
X1581404Y647700D01*
X1644396Y571500D02*
X1657604Y571500D01*
X1657604Y596900D02*
X1644396Y596900D01*
X1644396Y622300D02*
X1657604Y622300D01*
X1657604Y647700D02*
X1644396Y647700D01*
X1644396Y673100D02*
X1657604Y673100D01*
X1657604Y698500D02*
X1644396Y698500D01*
X1644396Y723900D02*
X1657604Y723900D01*
X1657604Y749300D02*
X1644396Y749300D01*
X1441704Y749300D02*
X1428496Y749300D01*
X1428496Y723900D02*
X1441704Y723900D01*
X1441704Y596900D02*
X1428496Y596900D01*
X1428496Y571500D02*
X1441704Y571500D01*
X1441704Y698500D02*
X1428496Y698500D01*
X1428496Y673100D02*
X1441704Y673100D01*
X1441704Y622300D02*
X1428496Y622300D01*
X1428496Y647700D02*
X1441704Y647700D01*
X1504696Y571500D02*
X1517904Y571500D01*
X1517904Y596900D02*
X1504696Y596900D01*
X1504696Y622300D02*
X1517904Y622300D01*
X1517904Y647700D02*
X1504696Y647700D01*
X1504696Y673100D02*
X1517904Y673100D01*
X1517904Y698500D02*
X1504696Y698500D01*
X1504696Y723900D02*
X1517904Y723900D01*
X1517904Y749300D02*
X1504696Y749300D01*
D34*
X596900Y1206500D03*
X596900Y1130300D03*
D18*
X628396Y1206500D02*
X641604Y1206500D01*
X641604Y1181100D02*
X628396Y1181100D01*
X628396Y1054100D02*
X641604Y1054100D01*
X704596Y1054100D02*
X717804Y1054100D01*
X641604Y1155700D02*
X628396Y1155700D01*
X628396Y1130300D02*
X641604Y1130300D01*
X641604Y1079500D02*
X628396Y1079500D01*
X628396Y1104900D02*
X641604Y1104900D01*
X704596Y1079500D02*
X717804Y1079500D01*
X717804Y1104900D02*
X704596Y1104900D01*
X704596Y1130300D02*
X717804Y1130300D01*
X717804Y1155700D02*
X704596Y1155700D01*
X704596Y1181100D02*
X717804Y1181100D01*
X717804Y1206500D02*
X704596Y1206500D01*
D32*
X546100Y1206500D03*
X546100Y1130300D03*
D30*
X577088Y1041400D02*
X591312Y1041400D01*
X591312Y1066800D02*
X577088Y1066800D01*
X577088Y1092200D02*
X591312Y1092200D01*
D32*
X990600Y342900D03*
X990600Y266700D03*
D22*
X533400Y1003300D03*
X533400Y1079500D03*
D35*
X152400Y889000D03*
D36*
X673100Y965200D03*
X673100Y939800D03*
X673100Y914400D03*
X673100Y889000D03*
X673100Y863600D03*
X673100Y838200D03*
X698500Y965200D03*
X698500Y939800D03*
X698500Y914400D03*
X698500Y889000D03*
X698500Y863600D03*
X698500Y838200D03*
X673100Y812800D03*
X698500Y812800D03*
X673100Y787400D03*
X673100Y762000D03*
X673100Y736600D03*
X673100Y711200D03*
X673100Y685800D03*
X673100Y660400D03*
X698500Y787400D03*
X698500Y762000D03*
X698500Y736600D03*
X698500Y711200D03*
X698500Y685800D03*
X698500Y660400D03*
X673100Y635000D03*
X698500Y635000D03*
X673100Y609600D03*
X673100Y584200D03*
X673100Y558800D03*
X673100Y533400D03*
X698500Y609600D03*
X698500Y584200D03*
X698500Y558800D03*
X698500Y533400D03*
D18*
X1422400Y362204D02*
X1422400Y348996D01*
X1447800Y348996D02*
X1447800Y362204D01*
X1574800Y362204D02*
X1574800Y348996D01*
X1600200Y348996D02*
X1600200Y362204D01*
X1473200Y362204D02*
X1473200Y348996D01*
X1498600Y348996D02*
X1498600Y362204D01*
X1549400Y362204D02*
X1549400Y348996D01*
X1524000Y348996D02*
X1524000Y362204D01*
X1600200Y425196D02*
X1600200Y438404D01*
X1574800Y438404D02*
X1574800Y425196D01*
X1549400Y425196D02*
X1549400Y438404D01*
X1524000Y438404D02*
X1524000Y425196D01*
X1498600Y425196D02*
X1498600Y438404D01*
X1473200Y438404D02*
X1473200Y425196D01*
X1447800Y425196D02*
X1447800Y438404D01*
X1422400Y438404D02*
X1422400Y425196D01*
D31*
X1447800Y482600D03*
X1447800Y508000D03*
X1473200Y482600D03*
X1473200Y508000D03*
X1498600Y482600D03*
X1498600Y508000D03*
X1524000Y482600D03*
X1524000Y508000D03*
X1549400Y482600D03*
X1549400Y508000D03*
X1574800Y482600D03*
X1574800Y508000D03*
X1600200Y482600D03*
X1600200Y508000D03*
X1625600Y482600D03*
X1625600Y508000D03*
D37*
X1518920Y393700D03*
X1503680Y393700D03*
D38*
X1511300Y393700D03*
D18*
X527304Y787400D02*
X514096Y787400D01*
X514096Y762000D02*
X527304Y762000D01*
X527304Y635000D02*
X514096Y635000D01*
X514096Y609600D02*
X527304Y609600D01*
X527304Y736600D02*
X514096Y736600D01*
X514096Y711200D02*
X527304Y711200D01*
X527304Y660400D02*
X514096Y660400D01*
X514096Y685800D02*
X527304Y685800D01*
X527304Y584200D02*
X514096Y584200D01*
X514096Y558800D02*
X527304Y558800D01*
X590296Y558800D02*
X603504Y558800D01*
X603504Y584200D02*
X590296Y584200D01*
X590296Y609600D02*
X603504Y609600D01*
X603504Y635000D02*
X590296Y635000D01*
X590296Y660400D02*
X603504Y660400D01*
X603504Y685800D02*
X590296Y685800D01*
X590296Y711200D02*
X603504Y711200D01*
X603504Y736600D02*
X590296Y736600D01*
X590296Y762000D02*
X603504Y762000D01*
X603504Y787400D02*
X590296Y787400D01*
X489204Y787400D02*
X475996Y787400D01*
X475996Y762000D02*
X489204Y762000D01*
X489204Y736600D02*
X475996Y736600D01*
X475996Y711200D02*
X489204Y711200D01*
X489204Y685800D02*
X475996Y685800D01*
X475996Y660400D02*
X489204Y660400D01*
X489204Y635000D02*
X475996Y635000D01*
X475996Y609600D02*
X489204Y609600D01*
X489204Y584200D02*
X475996Y584200D01*
D22*
X406400Y571500D03*
X406400Y596900D03*
D32*
X241300Y889000D03*
X241300Y863600D03*
D23*
X711200Y1231900D03*
X685800Y1231900D03*
X1485900Y774700D03*
X1460500Y774700D03*
X1625600Y774700D03*
X1600200Y774700D03*
D32*
X1397000Y431800D03*
X1397000Y406400D03*
D23*
X1854200Y1130300D03*
X1828800Y1130300D03*
X1854200Y838200D03*
X1828800Y838200D03*
X850900Y1092200D03*
X825500Y1092200D03*
X850900Y850900D03*
X825500Y850900D03*
X596900Y812800D03*
X571500Y812800D03*
D22*
X254000Y1003300D03*
X254000Y1028700D03*
X546100Y76200D03*
X546100Y101600D03*
X685800Y76200D03*
X685800Y101600D03*
X825500Y76200D03*
X825500Y101600D03*
X965200Y76200D03*
X965200Y101600D03*
X546100Y317500D03*
X546100Y342900D03*
X685800Y317500D03*
X685800Y342900D03*
X825500Y317500D03*
X825500Y342900D03*
X965200Y317500D03*
X965200Y342900D03*
D32*
X1206500Y279400D03*
X1206500Y254000D03*
D23*
X1320800Y254000D03*
X1295400Y254000D03*
D15*
X1295400Y762000D03*
X1320800Y762000D03*
D22*
X1511300Y825500D03*
X1511300Y850900D03*
D32*
X952500Y977900D03*
X952500Y952500D03*
X406400Y241300D03*
X406400Y190500D03*
D23*
X1384300Y317500D03*
X1333500Y317500D03*
D32*
X1663700Y533400D03*
X1663700Y457200D03*
D18*
X1657096Y1104900D02*
X1670304Y1104900D01*
X1670304Y1079500D02*
X1657096Y1079500D01*
X1657096Y952500D02*
X1670304Y952500D01*
X1670304Y927100D02*
X1657096Y927100D01*
X1657096Y1054100D02*
X1670304Y1054100D01*
X1670304Y1028700D02*
X1657096Y1028700D01*
X1657096Y977900D02*
X1670304Y977900D01*
X1670304Y1003300D02*
X1657096Y1003300D01*
X1657096Y901700D02*
X1670304Y901700D01*
X1670304Y876300D02*
X1657096Y876300D01*
X1733296Y876300D02*
X1746504Y876300D01*
X1746504Y901700D02*
X1733296Y901700D01*
X1733296Y927100D02*
X1746504Y927100D01*
X1746504Y952500D02*
X1733296Y952500D01*
X1733296Y977900D02*
X1746504Y977900D01*
X1746504Y1003300D02*
X1733296Y1003300D01*
X1733296Y1028700D02*
X1746504Y1028700D01*
X1746504Y1054100D02*
X1733296Y1054100D01*
X1733296Y1079500D02*
X1746504Y1079500D01*
X1746504Y1104900D02*
X1733296Y1104900D01*
D29*
X749300Y749300D03*
X749300Y723900D03*
X889000Y571500D03*
X889000Y596900D03*
D18*
X1657096Y419100D02*
X1670304Y419100D01*
X1670304Y317500D02*
X1657096Y317500D01*
X19304Y482600D02*
X6096Y482600D01*
X6096Y457200D02*
X19304Y457200D01*
X82296Y457200D02*
X95504Y457200D01*
X95504Y482600D02*
X82296Y482600D01*
X19304Y431800D02*
X6096Y431800D01*
X6096Y406400D02*
X19304Y406400D01*
X82296Y431800D02*
X95504Y431800D01*
X95504Y406400D02*
X82296Y406400D01*
D16*
X1905000Y45720D02*
X1905000Y30480D01*
X1879600Y30480D02*
X1879600Y45720D01*
X1854200Y45720D02*
X1854200Y30480D01*
X1828800Y30480D02*
X1828800Y45720D01*
D30*
X1854200Y297688D02*
X1854200Y311912D01*
X1879600Y311912D02*
X1879600Y297688D01*
X1905000Y297688D02*
X1905000Y311912D01*
D18*
X1663700Y1174496D02*
X1663700Y1187704D01*
X1689100Y1187704D02*
X1689100Y1174496D01*
X1714500Y1174496D02*
X1714500Y1187704D01*
X1739900Y1187704D02*
X1739900Y1174496D01*
X1765300Y1174496D02*
X1765300Y1187704D01*
X1790700Y1187704D02*
X1790700Y1174496D01*
X1816100Y1174496D02*
X1816100Y1187704D01*
D22*
X1219200Y114300D03*
X1219200Y139700D03*
D30*
X1130300Y564388D02*
X1130300Y578612D01*
X1104900Y578612D02*
X1104900Y564388D01*
D11*
X1765300Y122682D02*
X1765300Y105918D01*
X1765300Y232918D02*
X1765300Y249682D01*
M02*
