M48
;GenerationSoftware,Autodesk,EAGLE,9.6.1*%
;CreationDate,2025-08-27T02:13:44Z*%
FMAT,2
ICI,OFF
METRIC,TZ,000.000
T12C0.610
T11C0.813
T10C0.914
T9C1.016
T8C1.100
T7C1.118
T6C1.270
T5C1.397
T4C2.667
T3C3.175
T2C3.302
T1C3.962
%
G90
M71
T1
X15240Y88900
T2
X8890Y116230
X163830Y5334
X8890Y69190
T3
X3810Y123190
X195580Y3810
X195580Y123190
X187400Y11430
X3810Y3810
T4
X193500Y11430
X190500Y16230
T5
X3785Y60655
X3785Y53645
T6
X121920Y120650
X124460Y120650
X127000Y120650
X129540Y120650
X132080Y120650
X134620Y120650
X137160Y120650
X139700Y120650
X144780Y120650
X149860Y120650
X152400Y120650
X152400Y105410
X149860Y105410
X147320Y105410
X144780Y105410
X147320Y120650
X142240Y105410
X139700Y105410
X137160Y105410
X134620Y105410
X132080Y105410
X129540Y105410
X124460Y105410
X121920Y105410
X119380Y105410
X127000Y105410
X116840Y105410
X114300Y105410
X116840Y120650
X114300Y120650
X142240Y120650
X119380Y120650
T7
X161290Y20320
X163830Y20320
X152400Y30480
X176530Y11430
X176530Y24130
X166370Y20320
X181610Y11430
X181610Y24130
X152400Y17780
T8
X59690Y113030
X59690Y120650
T9
X10160Y106502
X10160Y109271
X7620Y77521
X7620Y80289
X7620Y83058
X7620Y85801
X7620Y88570
X7620Y91338
X7620Y94082
X7620Y96850
X7620Y99619
X7620Y102362
X7620Y105131
X7620Y107899
X195580Y69850
X195580Y72390
X67310Y78740
X195580Y77470
X195580Y80010
X195580Y82550
X195580Y85090
X195580Y87630
X195580Y90170
X195580Y92710
X195580Y95250
X195580Y97790
X195580Y100330
X195580Y102870
X195580Y105410
X195580Y107950
X182880Y3810
X185420Y3810
X187960Y3810
X190500Y3810
X88900Y59690
X88900Y57150
X74930Y72390
X74930Y74930
X69850Y53340
X69850Y55880
X69850Y58420
X69850Y60960
X67310Y53340
X67310Y55880
X67310Y58420
X67310Y60960
X69850Y63500
X67310Y63500
X69850Y66040
X69850Y68580
X69850Y71120
X69850Y73660
X69850Y76200
X69850Y78740
X67310Y66040
X67310Y68580
X67310Y71120
X67310Y73660
X67310Y76200
X69850Y81280
X67310Y81280
X69850Y83820
X69850Y86360
X69850Y88900
X69850Y91440
X69850Y93980
X69850Y96520
X67310Y83820
X67310Y86360
X67310Y88900
X67310Y91440
X67310Y93980
X67310Y96520
X43180Y124460
X195580Y110490
X195580Y115570
X195580Y118110
X195580Y113030
X195580Y19050
X195580Y21590
X195580Y24130
X195580Y26670
X166370Y123190
X168910Y123190
X171450Y123190
X173990Y123190
X176530Y123190
X195580Y74930
X10160Y76149
X10160Y78918
X195580Y29210
X195580Y31750
X195580Y34290
X195580Y36830
X195580Y39370
X195580Y41910
X195580Y44450
X195580Y46990
X195580Y49530
X195580Y52070
X195580Y54610
X195580Y57150
X195580Y59690
X195580Y62230
X195580Y64770
X195580Y67310
X45720Y100330
X45720Y92710
X1295Y59398
X1295Y54902
X10160Y81661
X10160Y84430
X10160Y54610
X10160Y57150
X10160Y59690
X45720Y124460
X33020Y124460
X35560Y124460
X38100Y124460
X40640Y124460
X10160Y87198
X10160Y89941
X10160Y92710
X10160Y95479
X10160Y98222
X10160Y100990
X10160Y103759
T10
X110490Y57150
X33020Y73660
X33020Y71120
X78740Y116840
X78740Y119380
X78740Y121920
X15240Y124460
X83820Y119380
X83820Y116840
X17780Y101600
X15240Y101600
X17780Y104140
X15240Y104140
X17780Y106680
X15240Y106680
X17780Y93980
X20320Y96520
X20320Y93980
X58420Y104140
X58420Y106680
X58420Y109220
X83820Y121920
X35560Y71120
X35560Y73660
X38100Y71120
X38100Y73660
X144780Y48260
X144780Y50800
X40640Y71120
X40640Y73660
X147320Y48260
X147320Y50800
X149860Y48260
X149860Y50800
X152400Y48260
X152400Y50800
X17780Y96520
X17780Y82550
X17780Y80010
X20320Y82550
X20320Y80010
X43180Y73660
X43180Y71120
X30480Y73660
X154940Y48260
X154940Y50800
X157480Y48260
X17780Y50800
X17780Y53340
X17780Y55880
X157480Y50800
X160020Y48260
X17780Y40640
X17780Y43180
X17780Y45720
X15240Y71120
X160020Y50800
X162560Y48260
X162560Y50800
X185420Y30480
X187960Y30480
X190500Y30480
X113030Y57150
X15240Y73660
X17780Y71120
X17780Y73660
X20320Y71120
X20320Y73660
X22860Y71120
X22860Y73660
X17780Y124460
X25400Y71120
X25400Y73660
X27940Y71120
X27940Y73660
X30480Y71120
T11
X27940Y21590
X27940Y19050
X27940Y6350
X27940Y3810
X27940Y16510
X27940Y13970
X27940Y8890
X27940Y11430
X35560Y3810
X35560Y6350
X35560Y8890
X35560Y11430
X35560Y13970
X35560Y16510
X35560Y19050
X35560Y21590
X24130Y3810
X24130Y11430
X15240Y26670
X13335Y25400
X15240Y24130
X15240Y19050
X13335Y17780
X15240Y16510
X21590Y3810
X21590Y11430
X21590Y25400
X20320Y27305
X19050Y25400
X21590Y21590
X21590Y13970
X24130Y13970
X24130Y21590
X19050Y13970
X19050Y21590
X16510Y3810
X16510Y11430
X19050Y3810
X19050Y11430
X3810Y8890
X3810Y11430
X3810Y16510
X3810Y19050
X3810Y24130
X3810Y26670
X3810Y31750
X3810Y34290
X10160Y17780
X10160Y20320
X10160Y22860
X10160Y25400
X10160Y27940
X46990Y118110
X46990Y120650
X44450Y118110
X44450Y120650
X106680Y25400
X106680Y22860
X106680Y10160
X106680Y7620
X106680Y20320
X106680Y17780
X106680Y12700
X106680Y15240
X114300Y7620
X114300Y10160
X114300Y12700
X114300Y15240
X114300Y17780
X114300Y20320
X114300Y22860
X114300Y25400
X177800Y110490
X177800Y107950
X177800Y95250
X177800Y92710
X177800Y105410
X177800Y102870
X177800Y97790
X177800Y100330
X177800Y90170
X177800Y87630
X185420Y87630
X185420Y90170
X185420Y92710
X185420Y95250
X185420Y97790
X185420Y100330
X185420Y102870
X185420Y105410
X185420Y107950
X185420Y110490
X177800Y81280
X177800Y78740
X177800Y66040
X177800Y63500
X177800Y76200
X177800Y73660
X177800Y68580
X177800Y71120
X177800Y60960
X177800Y58420
X185420Y58420
X185420Y60960
X185420Y63500
X185420Y66040
X185420Y68580
X185420Y71120
X185420Y73660
X185420Y76200
X185420Y78740
X185420Y81280
X157480Y74930
X157480Y72390
X157480Y59690
X157480Y57150
X157480Y69850
X157480Y67310
X157480Y62230
X157480Y64770
X165100Y57150
X165100Y59690
X165100Y62230
X165100Y64770
X165100Y67310
X165100Y69850
X165100Y72390
X165100Y74930
X143510Y74930
X143510Y72390
X143510Y59690
X143510Y57150
X143510Y69850
X143510Y67310
X143510Y62230
X143510Y64770
X151130Y57150
X151130Y59690
X151130Y62230
X151130Y64770
X151130Y67310
X151130Y69850
X151130Y72390
X151130Y74930
X63500Y120650
X63500Y118110
X63500Y105410
X71120Y105410
X63500Y115570
X63500Y113030
X63500Y107950
X63500Y110490
X71120Y107950
X71120Y110490
X71120Y113030
X71120Y115570
X71120Y118110
X71120Y120650
X54610Y120650
X54610Y113030
X99060Y34290
X99060Y26670
X53340Y100330
X53340Y107950
X144780Y35560
X157480Y35560
X160020Y35560
X147320Y35560
X149860Y35560
X154940Y35560
X152400Y35560
X160020Y43180
X157480Y43180
X154940Y43180
X152400Y43180
X149860Y43180
X147320Y43180
X144780Y43180
X142240Y43180
X52070Y78740
X52070Y76200
X52070Y63500
X52070Y60960
X52070Y73660
X52070Y71120
X52070Y66040
X52070Y68580
X52070Y58420
X52070Y55880
X59690Y55880
X59690Y58420
X59690Y60960
X59690Y63500
X59690Y66040
X59690Y68580
X59690Y71120
X59690Y73660
X59690Y76200
X59690Y78740
X48260Y78740
X48260Y76200
X48260Y73660
X48260Y71120
X48260Y68580
X48260Y66040
X48260Y63500
X48260Y60960
X48260Y58420
X40640Y57150
X40640Y59690
X24130Y88900
X24130Y86360
X71120Y123190
X68580Y123190
X148590Y77470
X146050Y77470
X162560Y77470
X160020Y77470
X139700Y43180
X139700Y40640
X185420Y113030
X182880Y113030
X185420Y83820
X182880Y83820
X85090Y109220
X82550Y109220
X85090Y85090
X82550Y85090
X59690Y81280
X57150Y81280
X25400Y100330
X25400Y102870
X54610Y7620
X54610Y10160
X68580Y7620
X68580Y10160
X82550Y7620
X82550Y10160
X96520Y7620
X96520Y10160
X54610Y31750
X54610Y34290
X68580Y31750
X68580Y34290
X82550Y31750
X82550Y34290
X96520Y31750
X96520Y34290
X120650Y27940
X120650Y25400
X132080Y25400
X129540Y25400
X129540Y76200
X132080Y76200
X151130Y82550
X151130Y85090
X95250Y97790
X95250Y95250
X40640Y24130
X40640Y19050
X138430Y31750
X133350Y31750
X166370Y53340
X166370Y45720
X166370Y110490
X166370Y107950
X166370Y95250
X166370Y92710
X166370Y105410
X166370Y102870
X166370Y97790
X166370Y100330
X166370Y90170
X166370Y87630
X173990Y87630
X173990Y90170
X173990Y92710
X173990Y95250
X173990Y97790
X173990Y100330
X173990Y102870
X173990Y105410
X173990Y107950
X173990Y110490
X166370Y41910
X166370Y31750
X1270Y48260
X1270Y45720
X8890Y45720
X8890Y48260
X1270Y43180
X1270Y40640
X8890Y43180
X8890Y40640
X166370Y118110
X168910Y118110
X171450Y118110
X173990Y118110
X176530Y118110
X179070Y118110
X181610Y118110
X121920Y11430
X121920Y13970
X142240Y35560
X189230Y22860
X186690Y22860
X168910Y26670
X173990Y26670
X160020Y27940
X165100Y27940
X160020Y24130
X165100Y24130
X77470Y82550
X77470Y80010
X77470Y77470
X77470Y74930
X77470Y72390
X77470Y69850
X77470Y67310
X77470Y64770
X77470Y62230
X77470Y59690
X77470Y57150
X77470Y54610
X85090Y54610
X85090Y57150
X85090Y59690
X85090Y62230
X85090Y64770
X85090Y67310
X85090Y69850
X85090Y72390
X85090Y74930
X85090Y77470
X85090Y80010
X85090Y82550
X171450Y30480
X176530Y30480
X175260Y3810
X175260Y6350
X172720Y11430
X172720Y19050
X186690Y38100
X184150Y38100
X176530Y38100
X173990Y38100
X171450Y38100
X187960Y34290
X182880Y34290
X171450Y34290
X176530Y34290
X77470Y106680
X77470Y104140
X77470Y91440
X77470Y88900
X77470Y101600
X77470Y99060
X77470Y93980
X85090Y88900
X85090Y91440
X85090Y93980
X85090Y96520
X85090Y99060
X85090Y101600
X85090Y104140
X85090Y106680
X30480Y92710
X38100Y92710
X38100Y100330
X30480Y100330
X22860Y63500
X22860Y60960
X22860Y58420
X22860Y55880
X22860Y53340
X22860Y50800
X22860Y48260
X22860Y45720
X22860Y43180
X22860Y40640
X22860Y38100
X22860Y35560
X22860Y33020
X22860Y30480
X38100Y30480
X38100Y33020
X38100Y35560
X38100Y38100
X38100Y40640
X38100Y43180
X38100Y45720
X38100Y48260
X38100Y50800
X38100Y53340
X38100Y55880
X38100Y58420
X38100Y60960
X38100Y63500
X26670Y78740
X29210Y78740
X41910Y78740
X44450Y78740
X31750Y78740
X34290Y78740
X39370Y78740
X36830Y78740
X44450Y86360
X41910Y86360
X39370Y86360
X36830Y86360
X34290Y86360
X31750Y86360
X29210Y86360
X26670Y86360
X16510Y63500
X8890Y63500
X27940Y24130
X30480Y24130
X45720Y111760
X45720Y114300
X45720Y105410
X45720Y107950
X77470Y96520
X100330Y120650
X100330Y118110
X124460Y21590
X124460Y19050
X124460Y6350
X124460Y3810
X124460Y16510
X124460Y13970
X124460Y8890
X124460Y11430
X132080Y3810
X132080Y6350
X132080Y8890
X132080Y11430
X132080Y13970
X132080Y16510
X132080Y19050
X132080Y21590
X143510Y21590
X135890Y21590
X143510Y25400
X135890Y25400
X147320Y24130
X147320Y21590
X135890Y17780
X143510Y17780
X102870Y31750
X102870Y29210
X102870Y26670
X102870Y24130
X102870Y21590
X102870Y19050
X102870Y16510
X102870Y13970
X102870Y11430
X102870Y8890
X102870Y6350
X102870Y3810
X118110Y3810
X118110Y6350
X118110Y8890
X118110Y11430
X118110Y13970
X118110Y16510
X118110Y19050
X118110Y21590
X118110Y24130
X118110Y26670
X118110Y29210
X118110Y31750
X99060Y21590
X99060Y13970
X99060Y82550
X101600Y82550
X114300Y82550
X116840Y82550
X104140Y82550
X106680Y82550
X111760Y82550
X109220Y82550
X119380Y82550
X121920Y82550
X124460Y82550
X127000Y82550
X129540Y82550
X132080Y82550
X134620Y82550
X137160Y82550
X139700Y82550
X142240Y82550
X144780Y82550
X147320Y82550
X147320Y97790
X144780Y97790
X142240Y97790
X139700Y97790
X137160Y97790
X134620Y97790
X132080Y97790
X129540Y97790
X127000Y97790
X124460Y97790
X121920Y97790
X119380Y97790
X116840Y97790
X114300Y97790
X111760Y97790
X109220Y97790
X106680Y97790
X104140Y97790
X101600Y97790
X99060Y97790
X88900Y86360
X88900Y93980
X86360Y21590
X86360Y19050
X86360Y6350
X86360Y3810
X86360Y16510
X86360Y13970
X86360Y8890
X86360Y11430
X93980Y3810
X93980Y6350
X93980Y8890
X93980Y11430
X93980Y13970
X93980Y16510
X93980Y19050
X93980Y21590
X139700Y11303
X139700Y6477
X137160Y11430
X137160Y13970
X137160Y6350
X137160Y3810
X86360Y45720
X86360Y43180
X86360Y30480
X86360Y27940
X86360Y40640
X86360Y38100
X86360Y33020
X86360Y35560
X93980Y27940
X93980Y30480
X93980Y33020
X93980Y35560
X93980Y38100
X93980Y40640
X93980Y43180
X93980Y45720
X72390Y21590
X72390Y19050
X72390Y6350
X72390Y3810
X72390Y16510
X72390Y13970
X72390Y8890
X72390Y11430
X80010Y3810
X80010Y6350
X80010Y8890
X80010Y11430
X80010Y13970
X80010Y16510
X80010Y19050
X80010Y21590
X72390Y45720
X72390Y43180
X72390Y30480
X72390Y27940
X72390Y40640
X72390Y38100
X72390Y33020
X72390Y35560
X80010Y27940
X80010Y30480
X80010Y33020
X80010Y35560
X80010Y38100
X80010Y40640
X80010Y43180
X80010Y45720
X58420Y21590
X58420Y19050
X58420Y6350
X58420Y3810
X58420Y16510
X58420Y13970
X58420Y8890
X58420Y11430
X66040Y3810
X66040Y6350
X66040Y8890
X66040Y11430
X66040Y13970
X66040Y16510
X66040Y19050
X66040Y21590
X58420Y45720
X58420Y43180
X58420Y30480
X58420Y27940
X58420Y40640
X58420Y38100
X58420Y33020
X58420Y35560
X66040Y27940
X66040Y30480
X66040Y33020
X66040Y35560
X66040Y38100
X66040Y40640
X66040Y43180
X66040Y45720
X44450Y21590
X44450Y19050
X44450Y6350
X44450Y3810
X44450Y16510
X44450Y13970
X44450Y8890
X44450Y11430
X52070Y3810
X52070Y6350
X52070Y8890
X52070Y11430
X52070Y13970
X52070Y16510
X52070Y19050
X52070Y21590
X44450Y45720
X44450Y43180
X44450Y30480
X44450Y27940
X44450Y40640
X44450Y38100
X44450Y33020
X44450Y35560
X52070Y27940
X52070Y30480
X52070Y33020
X52070Y35560
X52070Y38100
X52070Y40640
X52070Y43180
X52070Y45720
X116840Y72390
X116840Y69850
X116840Y67310
X116840Y64770
X116840Y62230
X116840Y59690
X116840Y57150
X116840Y54610
X116840Y52070
X116840Y49530
X116840Y46990
X116840Y44450
X116840Y41910
X116840Y39370
X132080Y39370
X132080Y41910
X132080Y44450
X132080Y46990
X132080Y49530
X132080Y52070
X132080Y54610
X132080Y57150
X132080Y59690
X132080Y62230
X132080Y64770
X132080Y67310
X132080Y69850
X132080Y72390
X186690Y48260
X184150Y48260
X176530Y48260
X173990Y48260
X171450Y48260
X21590Y109220
X24130Y109220
X36830Y109220
X39370Y109220
X26670Y109220
X29210Y109220
X34290Y109220
X31750Y109220
X39370Y116840
X36830Y116840
X34290Y116840
X31750Y116840
X29210Y116840
X26670Y116840
X24130Y116840
X21590Y116840
X22860Y106680
X25400Y106680
X29210Y106680
X31750Y106680
X17780Y111760
X17780Y114300
X38100Y106680
X35560Y106680
X21590Y119380
X24130Y119380
T12
X53340Y53816
X76994Y51435
X46037Y59690
X47307Y56039
X63024Y77629
X1746Y16351
X28257Y123507
X4128Y48419
X4763Y51435
X12224Y84455
X124460Y38894
X78105Y85090
X99219Y115411
X167323Y113506
X118427Y110172
X75248Y93504
X100965Y71438
X88424Y24924
X102870Y46355
X101917Y67310
X36354Y24289
X35560Y32544
X42545Y34131
X88265Y12382
X75406Y10636
X76518Y18574
X101917Y44450
X101441Y22860
X104299Y65405
X104299Y40799
X101124Y39529
X76041Y37941
X107156Y88741
X143510Y89376
X111760Y95567
X109696Y101441
X109696Y112395
X144939Y114935
X109696Y84931
X108109Y108744
X141446Y112712
X110649Y111601
X141446Y113982
X97314Y124619
X177006Y113506
X164783Y114935
X17463Y21749
X96679Y24289
X98584Y23654
X83979Y28416
X100647Y7779
X84138Y50006
X73184Y50006
X70009Y28416
X40640Y35560
X128111Y8414
X108585Y33814
X117634Y77629
X89852Y106521
X95250Y77788
X72866Y86519
X49371Y96361
X57467Y96837
X24924Y76041
X19685Y101759
X70009Y100330
X107632Y77629
X27781Y60007
X25082Y64929
X65881Y116999
X65881Y100806
X123666Y118269
X157004Y112554
X124460Y110490
X49212Y48736
X21590Y101759
X31909Y74613
X43339Y76835
X122079Y26829
X109061Y73819
X88900Y75724
X80010Y87947
X43339Y88265
X96520Y122714
X128746Y122714
X26511Y7620
X129699Y7461
X34608Y35084
X156210Y55721
X46037Y42069
X47307Y50641
X61119Y50800
X161449Y83979
X92392Y83661
X91757Y62547
X89376Y62547
X160655Y53816
X24924Y38576
X49212Y39529
X56197Y73025
X155734Y107791
X70961Y102711
X28575Y50959
X29686Y64929
X171609Y41910
X167958Y65564
X81756Y42228
X130492Y40799
X137160Y42704
X172561Y44767
X55721Y57309
X56197Y65564
X164624Y43339
X162401Y68263
X50165Y57467
X55086Y119221
X152718Y123031
X154623Y69850
X187484Y62865
X190341Y45720
X190341Y46990
X188754Y62865
X61277Y67151
X175101Y70009
X158433Y106839
X24289Y101759
X189547Y49530
X65881Y64611
X187166Y52229
X70326Y38100
X97949Y37624
X98901Y42704
X185420Y36513
X46037Y78105
X34608Y74771
X122872Y2699
X1905Y49847
X52070Y25876
X64929Y25876
X78899Y25876
X61912Y25876
X136843Y26511
X136049Y34925
X122079Y36513
X139700Y71755
X119697Y66834
X87947Y113506
X90964Y95567
X143986Y92869
X99854Y60007
X31750Y88424
X30321Y77153
X46037Y44609
X44609Y68739
X20320Y77470
X22860Y78740
X38894Y81439
X26829Y72708
X26194Y36036
X20638Y50641
X35084Y50641
X33496Y44450
X134779Y34925
X113824Y35560
X111442Y46831
X40640Y22225
X52387Y24289
X25082Y15399
X25717Y25400
X49054Y31750
X79216Y23971
X148908Y79375
X95726Y79534
X162560Y35243
X105727Y79375
X104140Y37306
X90646Y23495
X124460Y53499
X114141Y49847
X67628Y48736
X123507Y49212
X123349Y80963
X76518Y30004
X88424Y48736
X90329Y12541
X89376Y32861
X113506Y31591
X89535Y29051
X111442Y23177
X111442Y35560
X96044Y38576
X76994Y36036
X111601Y17939
X61277Y36989
X66040Y54769
X110490Y53499
X81121Y101441
X112712Y102552
X120491Y76676
X111601Y101441
X134461Y84931
X133509Y99377
X144939Y103029
X134620Y95726
X147320Y95726
X133985Y93821
X146685Y93821
X138589Y115887
X80010Y92392
X87947Y89376
X89535Y68739
X91440Y81756
X83026Y75406
X138113Y77946
X104140Y103346
X74771Y110649
X99536Y103981
X89217Y99377
X96044Y100489
X87313Y121920
X80169Y99536
X112712Y90329
X168434Y107950
X138113Y5239
X124460Y54769
X125889Y84138
X62547Y27781
X122555Y54451
X121761Y23654
X26670Y49212
X50641Y49689
X54292Y82709
X162560Y98584
X55086Y94932
X57309Y87313
X60642Y103664
X68739Y104299
X162719Y89535
X163036Y91440
X143669Y54134
X192246Y53181
X145733Y38894
X177800Y44291
X149066Y38894
X188119Y40481
X18415Y5715
X13176Y80328
X19209Y85884
X59055Y90329
X61595Y81280
X107791Y80963
X120650Y44926
X128270Y43974
X130334Y20161
X33496Y16986
X36989Y76676
X87947Y83661
X89217Y77629
X119062Y75248
X121602Y39846
X140970Y37941
X138748Y13652
X110490Y4921
X108744Y10160
X99060Y12541
X19685Y16669
X10319Y15399
X1746Y68739
X29527Y96520
X32385Y8255
X4604Y6667
X9208Y77470
X51276Y89376
X51276Y83661
X93345Y70961
X60007Y12859
X62071Y56832
X91281Y55721
X41275Y13652
X42704Y24606
X97631Y32861
X36513Y29369
X31591Y29369
X31591Y55721
X36513Y57150
X42228Y72231
X75406Y64770
X38100Y121920
X112554Y26352
X135573Y51276
X126841Y50641
X125889Y33179
X42545Y44926
X45244Y52387
X62547Y51911
X99060Y16351
X91281Y120491
X103346Y57309
X109061Y55086
X135096Y70485
X135573Y80645
X168593Y80169
X141129Y99377
X172085Y99219
X12700Y62547
X56832Y50482
X56515Y74295
X138589Y51276
X138589Y65881
X87789Y66834
X86678Y73501
X46037Y36989
X43021Y61119
X112395Y51435
X75565Y53022
X96520Y65405
X95409Y113506
X102076Y40323
X98901Y64929
X145574Y60166
X163036Y59055
X136208Y62071
X168751Y68421
X134144Y64294
X135890Y47307
X170339Y72549
X147479Y69374
X140018Y50165
X147955Y87789
X72866Y99060
X157480Y91916
X163036Y69850
X40799Y64452
X81598Y60166
X79851Y68421
X31591Y61912
X89852Y113506
X93504Y109696
X98425Y108744
X98425Y57309
X74454Y57626
X73025Y117157
X106045Y117316
X156051Y116840
X168116Y75089
X61595Y82550
X124777Y1270
X14446Y3651
X111601Y64294
X118745Y38576
X81121Y74454
X57785Y54769
X45244Y53657
X42069Y32385
X94932Y61912
X98901Y45402
X192246Y48577
X63976Y59531
X82233Y58102
X139541Y52229
X152559Y90011
X142240Y77946
X138748Y74771
X63817Y51911
X25082Y52229
X160496Y81121
X115094Y50800
X81756Y51435
X141288Y72708
X152400Y83979
X90170Y81756
X89535Y70009
X148749Y74771
X137478Y55086
X187007Y79851
X147479Y74771
X145098Y70961
X140018Y68421
X139541Y57626
X133985Y90487
X93027Y60007
X97472Y51435
X95091Y115411
X65246Y24130
X28257Y41751
X44132Y62547
X66993Y123984
X42228Y64452
X31591Y63182
X138589Y99377
X127635Y62389
X146209Y100489
X28099Y44609
M30