G04 EAGLE Gerber RS-274X export*
G75*
%MOMM*%
%FSLAX34Y34*%
%LPD*%
%INSilkscreen Bottom*%
%IPPOS*%
%AMOC8*
5,1,8,0,0,1.08239X$1,22.5*%
G01*
%ADD10C,0.152400*%
%ADD11C,0.127000*%


D10*
X1497330Y383540D02*
X1525270Y383540D01*
X1497330Y403860D02*
X1497230Y403858D01*
X1497131Y403852D01*
X1497031Y403842D01*
X1496933Y403829D01*
X1496834Y403811D01*
X1496737Y403790D01*
X1496641Y403765D01*
X1496545Y403736D01*
X1496451Y403703D01*
X1496358Y403667D01*
X1496267Y403627D01*
X1496177Y403583D01*
X1496089Y403536D01*
X1496003Y403486D01*
X1495919Y403432D01*
X1495837Y403375D01*
X1495758Y403315D01*
X1495680Y403251D01*
X1495606Y403185D01*
X1495534Y403116D01*
X1495465Y403044D01*
X1495399Y402970D01*
X1495335Y402892D01*
X1495275Y402813D01*
X1495218Y402731D01*
X1495164Y402647D01*
X1495114Y402561D01*
X1495067Y402473D01*
X1495023Y402383D01*
X1494983Y402292D01*
X1494947Y402199D01*
X1494914Y402105D01*
X1494885Y402009D01*
X1494860Y401913D01*
X1494839Y401816D01*
X1494821Y401717D01*
X1494808Y401619D01*
X1494798Y401519D01*
X1494792Y401420D01*
X1494790Y401320D01*
X1525270Y403860D02*
X1525370Y403858D01*
X1525469Y403852D01*
X1525569Y403842D01*
X1525667Y403829D01*
X1525766Y403811D01*
X1525863Y403790D01*
X1525959Y403765D01*
X1526055Y403736D01*
X1526149Y403703D01*
X1526242Y403667D01*
X1526333Y403627D01*
X1526423Y403583D01*
X1526511Y403536D01*
X1526597Y403486D01*
X1526681Y403432D01*
X1526763Y403375D01*
X1526842Y403315D01*
X1526920Y403251D01*
X1526994Y403185D01*
X1527066Y403116D01*
X1527135Y403044D01*
X1527201Y402970D01*
X1527265Y402892D01*
X1527325Y402813D01*
X1527382Y402731D01*
X1527436Y402647D01*
X1527486Y402561D01*
X1527533Y402473D01*
X1527577Y402383D01*
X1527617Y402292D01*
X1527653Y402199D01*
X1527686Y402105D01*
X1527715Y402009D01*
X1527740Y401913D01*
X1527761Y401816D01*
X1527779Y401717D01*
X1527792Y401619D01*
X1527802Y401519D01*
X1527808Y401420D01*
X1527810Y401320D01*
X1527810Y386080D02*
X1527808Y385980D01*
X1527802Y385881D01*
X1527792Y385781D01*
X1527779Y385683D01*
X1527761Y385584D01*
X1527740Y385487D01*
X1527715Y385391D01*
X1527686Y385295D01*
X1527653Y385201D01*
X1527617Y385108D01*
X1527577Y385017D01*
X1527533Y384927D01*
X1527486Y384839D01*
X1527436Y384753D01*
X1527382Y384669D01*
X1527325Y384587D01*
X1527265Y384508D01*
X1527201Y384430D01*
X1527135Y384356D01*
X1527066Y384284D01*
X1526994Y384215D01*
X1526920Y384149D01*
X1526842Y384085D01*
X1526763Y384025D01*
X1526681Y383968D01*
X1526597Y383914D01*
X1526511Y383864D01*
X1526423Y383817D01*
X1526333Y383773D01*
X1526242Y383733D01*
X1526149Y383697D01*
X1526055Y383664D01*
X1525959Y383635D01*
X1525863Y383610D01*
X1525766Y383589D01*
X1525667Y383571D01*
X1525569Y383558D01*
X1525469Y383548D01*
X1525370Y383542D01*
X1525270Y383540D01*
X1497330Y383540D02*
X1497230Y383542D01*
X1497131Y383548D01*
X1497031Y383558D01*
X1496933Y383571D01*
X1496834Y383589D01*
X1496737Y383610D01*
X1496641Y383635D01*
X1496545Y383664D01*
X1496451Y383697D01*
X1496358Y383733D01*
X1496267Y383773D01*
X1496177Y383817D01*
X1496089Y383864D01*
X1496003Y383914D01*
X1495919Y383968D01*
X1495837Y384025D01*
X1495758Y384085D01*
X1495680Y384149D01*
X1495606Y384215D01*
X1495534Y384284D01*
X1495465Y384356D01*
X1495399Y384430D01*
X1495335Y384508D01*
X1495275Y384587D01*
X1495218Y384669D01*
X1495164Y384753D01*
X1495114Y384839D01*
X1495067Y384927D01*
X1495023Y385017D01*
X1494983Y385108D01*
X1494947Y385201D01*
X1494914Y385295D01*
X1494885Y385391D01*
X1494860Y385487D01*
X1494839Y385584D01*
X1494821Y385683D01*
X1494808Y385781D01*
X1494798Y385881D01*
X1494792Y385980D01*
X1494790Y386080D01*
X1494790Y401320D01*
X1527810Y401320D02*
X1527810Y386080D01*
X1525270Y403860D02*
X1497330Y403860D01*
D11*
X1519549Y415298D02*
X1521455Y417205D01*
X1525268Y417205D01*
X1527175Y415298D01*
X1527175Y413392D01*
X1525268Y411485D01*
X1521455Y411485D01*
X1519549Y409578D01*
X1519549Y407672D01*
X1521455Y405765D01*
X1525268Y405765D01*
X1527175Y407672D01*
X1515481Y407672D02*
X1513574Y405765D01*
X1511668Y405765D01*
X1509761Y407672D01*
X1509761Y417205D01*
X1507855Y417205D02*
X1511668Y417205D01*
X1503787Y413392D02*
X1499974Y417205D01*
X1499974Y405765D01*
X1503787Y405765D02*
X1496161Y405765D01*
M02*
